<svg data-v-423bf9ae="" xmlns="http://www.w3.org/2000/svg" viewBox="0 0 199 90" class="iconLeft"><!----><!----><!----><g data-v-423bf9ae="" id="9afcea1b-9779-4d27-a39f-a2fe3354993a" fill="white" transform="matrix(6.0180540013045345,0,0,6.0180540013045345,107.98750676914122,-10.516546157596501)"><path d="M7.64 5.98L7.64 4.24L0.36 4.24L0.36 5.98L3.02 5.98L3.02 14.21L4.97 14.21L4.97 5.98ZM15.11 14.21L15.11 12.47L10.56 12.47L15.11 5.78L15.11 4.24L8.74 4.24L8.74 5.98L12.81 5.98L8.89 11.66C8.61 12.08 8.46 12.52 8.46 12.91C8.46 13.64 8.96 14.21 10.04 14.21Z"></path></g><!----><g data-v-423bf9ae="" id="3e383078-46ec-4fe4-a637-39e8d33b6402" transform="matrix(1.5025667166737615,0,0,1.5025667166737615,-2.08213487364975,-3.030889249063904)" stroke="none" fill="white"><path d="M52 22a10 10 0 0 0-9.8 8H24a10 10 0 0 1-9.84-8.24A10 10 0 0 0 22 12C21.45-1.27 2.55-1.26 2 12a10 10 0 0 0 8 9.8v20.4A10 10 0 0 0 2 52c.55 13.27 19.45 13.26 20 0a10 10 0 0 0-8-9.8V29.79A14 14 0 0 0 24 34h18.2c2.69 11.66 19.46 10.07 19.8-2a10 10 0 0 0-10-10z" data-name="Layer 87"></path></g><!----></svg>