<svg data-v-423bf9ae="" xmlns="http://www.w3.org/2000/svg" viewBox="0 0 78.82819477797526 60" class="font"><!----><!----><defs data-v-423bf9ae=""><linearGradient data-v-423bf9ae="" gradientTransform="rotate(25)" id="ff891cf2-08f5-423e-a09d-26b9a45bd658" x1="0%" y1="0%" x2="100%" y2="0%"><stop data-v-423bf9ae="" offset="0%" style="stop-color: rgb(81, 6, 255); stop-opacity: 1;"></stop><stop data-v-423bf9ae="" offset="100%" style="stop-color: rgb(97, 203, 242); stop-opacity: 1;"></stop></linearGradient></defs><g data-v-423bf9ae="" id="ebd6bacb-284a-41cc-8813-5448ca9b4170" fill="url(#ff891cf2-08f5-423e-a09d-26b9a45bd658)" transform="matrix(5.958291572597482,0,0,5.958291572597482,-1.3108240101274333,-16.325718250484066)"><path d="M1.26 5.42L0.22 5.42L0.22 7.31L1.26 7.31L1.26 10.07C1.26 11.34 1.74 12.81 3.71 12.81C4.73 12.81 5.53 12.36 5.53 12.36L4.91 10.36C4.91 10.36 4.62 10.58 4.30 10.58C3.91 10.58 3.74 10.26 3.74 9.59L3.74 7.31L5.25 7.31L5.25 5.42L3.74 5.42L3.74 2.74L1.26 2.74ZM13.45 5.42L6.33 5.42L6.33 7.31L9.30 7.31L5.74 12.60L13.17 12.60L13.17 10.71L9.90 10.71Z"></path></g><!----><!----></svg>